<svg width="24" height="24" viewBox="0 0 24 24" fill="none" xmlns="http://www.w3.org/2000/svg">
<path d="M12 3.75C8.436 3.75 5.75 6.205 5.75 9V10.512C5.83313 10.5045 5.91654 10.5005 6 10.5H8C8.39782 10.5 8.77936 10.658 9.06066 10.9393C9.34196 11.2206 9.5 11.6022 9.5 12V17C9.5 17.3978 9.34196 17.7794 9.06066 18.0607C8.77936 18.342 8.39782 18.5 8 18.5H6C5.33696 18.5 4.70107 18.2366 4.23223 17.7678C3.76339 17.2989 3.5 16.663 3.5 16V13C3.5 12.3 3.787 11.668 4.25 11.215V9C4.25 5.168 7.832 2.25 12 2.25C16.168 2.25 19.75 5.168 19.75 9V11.215C19.9874 11.4477 20.176 11.7254 20.3048 12.0319C20.4336 12.3384 20.5 12.6675 20.5 13V16C20.5 16.3283 20.4353 16.6534 20.3097 16.9567C20.1841 17.26 19.9999 17.5356 19.7678 17.7678C19.5356 17.9999 19.26 18.1841 18.9567 18.3097C18.6534 18.4353 18.3283 18.5 18 18.5H16C15.6022 18.5 15.2206 18.342 14.9393 18.0607C14.658 17.7794 14.5 17.3978 14.5 17V12C14.5 11.6022 14.658 11.2206 14.9393 10.9393C15.2206 10.658 15.6022 10.5 16 10.5H18C18.0847 10.5 18.168 10.504 18.25 10.512V9C18.25 6.205 15.564 3.75 12 3.75Z" fill="black"/>
</svg>
